<svg width="24" height="24" viewBox="0 0 24 24" fill="none" xmlns="http://www.w3.org/2000/svg">
<path d="M3 7.0001H4.424C4.63173 7.65287 5.04175 8.22263 5.59472 8.62696C6.1477 9.03129 6.81497 9.24921 7.5 9.24921C8.18503 9.24921 8.8523 9.03129 9.40528 8.62696C9.95825 8.22263 10.3683 7.65287 10.576 7.0001H21C21.2652 7.0001 21.5196 6.89474 21.7071 6.7072C21.8946 6.51967 22 6.26531 22 6.0001C22 5.73488 21.8946 5.48053 21.7071 5.29299C21.5196 5.10545 21.2652 5.0001 21 5.0001H10.576C10.3683 4.34732 9.95825 3.77756 9.40528 3.37323C8.8523 2.9689 8.18503 2.75098 7.5 2.75098C6.81497 2.75098 6.1477 2.9689 5.59472 3.37323C5.04175 3.77756 4.63173 4.34732 4.424 5.0001H3C2.73478 5.0001 2.48043 5.10545 2.29289 5.29299C2.10536 5.48053 2 5.73488 2 6.0001C2 6.26531 2.10536 6.51967 2.29289 6.7072C2.48043 6.89474 2.73478 7.0001 3 7.0001Z" fill="#6B7280"/>
<path d="M21 11.0001H19.576C19.3683 10.3473 18.9583 9.77756 18.4053 9.37323C17.8523 8.9689 17.185 8.75098 16.5 8.75098C15.815 8.75098 15.1477 8.9689 14.5947 9.37323C14.0417 9.77756 13.6317 10.3473 13.424 11.0001H3C2.73478 11.0001 2.48043 11.1055 2.29289 11.293C2.10536 11.4805 2 11.7349 2 12.0001C2 12.2653 2.10536 12.5197 2.29289 12.7072C2.48043 12.8947 2.73478 13.0001 3 13.0001H13.424C13.6317 13.6529 14.0417 14.2226 14.5947 14.627C15.1477 15.0313 15.815 15.2492 16.5 15.2492C17.185 15.2492 17.8523 15.0313 18.4053 14.627C18.9583 14.2226 19.3683 13.6529 19.576 13.0001H21C21.2652 13.0001 21.5196 12.8947 21.7071 12.7072C21.8946 12.5197 22 12.2653 22 12.0001C22 11.7349 21.8946 11.4805 21.7071 11.293C21.5196 11.1055 21.2652 11.0001 21 11.0001Z" fill="#6B7280"/>
<path d="M21 17.0001H10.576C10.3683 16.3473 9.95825 15.7776 9.40528 15.3732C8.8523 14.9689 8.18503 14.751 7.5 14.751C6.81497 14.751 6.1477 14.9689 5.59472 15.3732C5.04175 15.7776 4.63173 16.3473 4.424 17.0001H3C2.73478 17.0001 2.48043 17.1055 2.29289 17.293C2.10536 17.4805 2 17.7349 2 18.0001C2 18.2653 2.10536 18.5197 2.29289 18.7072C2.48043 18.8947 2.73478 19.0001 3 19.0001H4.424C4.63173 19.6529 5.04175 20.2226 5.59472 20.627C6.1477 21.0313 6.81497 21.2492 7.5 21.2492C8.18503 21.2492 8.8523 21.0313 9.40528 20.627C9.95825 20.2226 10.3683 19.6529 10.576 19.0001H21C21.2652 19.0001 21.5196 18.8947 21.7071 18.7072C21.8946 18.5197 22 18.2653 22 18.0001C22 17.7349 21.8946 17.4805 21.7071 17.293C21.5196 17.1055 21.2652 17.0001 21 17.0001Z" fill="#6B7280"/>
</svg>
