<svg width="30" height="30" viewBox="0 0 30 30" fill="none" xmlns="http://www.w3.org/2000/svg">
<path d="M9.375 18.9385C10.1252 18.9385 10.8563 19.1773 11.4619 19.6201C12.0672 20.0628 12.5157 20.6868 12.7432 21.4014L12.8545 21.75H26.25C26.4489 21.75 26.6396 21.8291 26.7803 21.9697C26.9209 22.1104 27 22.3011 27 22.5C27 22.6989 26.9209 22.8897 26.7803 23.0303C26.6396 23.1709 26.4489 23.25 26.25 23.25H12.8545L12.7432 23.5986C12.5157 24.3132 12.0672 24.9372 11.4619 25.3799C10.8563 25.8227 10.1252 26.0615 9.375 26.0615C8.62482 26.0615 7.89366 25.8227 7.28809 25.3799C6.68278 24.9372 6.23434 24.3132 6.00684 23.5986L5.89551 23.25H3.75C3.55112 23.25 3.36037 23.1709 3.21973 23.0303C3.07911 22.8897 3.00003 22.6989 3 22.5C3 22.3011 3.07911 22.1104 3.21973 21.9697C3.36038 21.8291 3.55109 21.75 3.75 21.75H5.89551L6.00684 21.4014C6.2343 20.6868 6.68277 20.0628 7.28809 19.6201C7.89366 19.1773 8.62482 18.9385 9.375 18.9385ZM20.625 11.4385C21.3752 11.4385 22.1063 11.6773 22.7119 12.1201C23.3172 12.5628 23.7657 13.1868 23.9932 13.9014L24.1045 14.25H26.25C26.4489 14.25 26.6396 14.3291 26.7803 14.4697C26.9209 14.6104 27 14.8011 27 15C27 15.1989 26.9209 15.3897 26.7803 15.5303C26.6396 15.6709 26.4489 15.75 26.25 15.75H24.1045L23.9932 16.0986C23.7657 16.8132 23.3172 17.4372 22.7119 17.8799C22.1063 18.3227 21.3752 18.5615 20.625 18.5615C19.8748 18.5615 19.1437 18.3227 18.5381 17.8799C17.9328 17.4372 17.4843 16.8132 17.2568 16.0986L17.1455 15.75H3.75C3.55112 15.75 3.36037 15.6709 3.21973 15.5303C3.0791 15.3897 3.00003 15.1989 3 15C3 14.8011 3.07911 14.6104 3.21973 14.4697C3.36038 14.3291 3.55109 14.25 3.75 14.25H17.1455L17.2568 13.9014C17.4843 13.1868 17.9328 12.5628 18.5381 12.1201C19.1437 11.6773 19.8748 11.4385 20.625 11.4385ZM9.375 3.93848C10.1252 3.93848 10.8563 4.17734 11.4619 4.62012C12.0672 5.06283 12.5157 5.68676 12.7432 6.40137L12.8545 6.75H26.25C26.4489 6.75 26.6396 6.82907 26.7803 6.96973C26.9209 7.11037 27 7.30112 27 7.5C27 7.69887 26.9209 7.88965 26.7803 8.03027C26.6396 8.17089 26.4489 8.25 26.25 8.25H12.8545L12.7432 8.59863C12.5157 9.31319 12.0672 9.93721 11.4619 10.3799C10.8563 10.8227 10.1252 11.0615 9.375 11.0615C8.62482 11.0615 7.89366 10.8227 7.28809 10.3799C6.68278 9.93721 6.23434 9.31319 6.00684 8.59863L5.89551 8.25H3.75C3.55112 8.25 3.36037 8.17089 3.21973 8.03027C3.0791 7.88965 3.00003 7.69887 3 7.5C3 7.30112 3.07911 7.11037 3.21973 6.96973C3.36038 6.82907 3.55109 6.75 3.75 6.75H5.89551L6.00684 6.40137C6.2343 5.68676 6.68277 5.06284 7.28809 4.62012C7.89366 4.17734 8.62482 3.93848 9.375 3.93848Z" fill="#3F83F8" stroke="#3F83F8"/>
</svg>
