<svg width="14" height="14" viewBox="0 0 14 14" fill="none" xmlns="http://www.w3.org/2000/svg">
<path d="M10.8535 4.96967L7.58747 1.96963C7.51142 1.89964 7.42092 1.84431 7.32129 1.80688C7.12154 1.73104 6.89722 1.73104 6.69748 1.80688C6.59784 1.84431 6.50734 1.89964 6.4313 1.96963L3.16528 4.96967C3.0873 5.03885 3.0251 5.12161 2.9823 5.21311C2.93951 5.30462 2.91699 5.40304 2.91605 5.50262C2.9151 5.60221 2.93576 5.70097 2.97682 5.79314C3.01787 5.88531 3.0785 5.96905 3.15516 6.03947C3.23183 6.10989 3.32299 6.16558 3.42334 6.2033C3.52368 6.24101 3.6312 6.25998 3.73961 6.25912C3.84803 6.25825 3.95517 6.23756 4.05479 6.19826C4.1544 6.15895 4.2445 6.10181 4.31982 6.03018L6.19369 4.31041V11.5C6.19369 11.6989 6.27972 11.8897 6.43284 12.0303C6.58597 12.171 6.79365 12.25 7.0102 12.25C7.22675 12.25 7.43443 12.171 7.58755 12.0303C7.74068 11.8897 7.8267 11.6989 7.8267 11.5V4.31041L9.69894 6.03018C9.85294 6.1668 10.0592 6.24239 10.2733 6.24069C10.4874 6.23898 10.6921 6.1601 10.8435 6.02104C10.9949 5.88198 11.0808 5.69387 11.0827 5.49722C11.0845 5.30057 11.0022 5.11112 10.8535 4.96967Z" fill="#03543F"/>
</svg>
