<svg width="16" height="16" viewBox="0 0 16 16" fill="none" xmlns="http://www.w3.org/2000/svg">
<path d="M11.1373 6.862C11.0123 6.73702 10.8428 6.66681 10.666 6.66681C10.4892 6.66681 10.3197 6.73702 10.1947 6.862L8.66602 8.39067V2.66667C8.66602 2.48986 8.59578 2.32029 8.47075 2.19526C8.34573 2.07024 8.17616 2 7.99935 2C7.82254 2 7.65297 2.07024 7.52794 2.19526C7.40292 2.32029 7.33268 2.48986 7.33268 2.66667V8.39067L5.80402 6.862C5.74252 6.79833 5.66895 6.74754 5.58762 6.7126C5.50628 6.67766 5.4188 6.65927 5.33028 6.6585C5.24176 6.65773 5.15398 6.6746 5.07205 6.70812C4.99012 6.74164 4.91568 6.79114 4.85309 6.85374C4.79049 6.91633 4.74099 6.99077 4.70747 7.0727C4.67395 7.15463 4.65708 7.24241 4.65785 7.33093C4.65862 7.41945 4.67701 7.50693 4.71195 7.58827C4.74689 7.66961 4.79768 7.74317 4.86135 7.80467L7.52802 10.4713C7.58994 10.5334 7.66351 10.5827 7.7445 10.6163C7.8255 10.6499 7.91233 10.6672 8.00002 10.6672C8.08771 10.6672 8.17453 10.6499 8.25553 10.6163C8.33652 10.5827 8.41009 10.5334 8.47201 10.4713L11.1387 7.80467C11.2635 7.67947 11.3335 7.50983 11.3332 7.33306C11.333 7.15628 11.2625 6.98684 11.1373 6.862Z" fill="#6B7280"/>
<path d="M11.3327 14H4.66602C4.13558 14 3.62687 13.7893 3.2518 13.4142C2.87673 13.0391 2.66602 12.5304 2.66602 12V10C2.66602 9.82319 2.73625 9.65362 2.86128 9.5286C2.9863 9.40357 3.15587 9.33333 3.33268 9.33333C3.50949 9.33333 3.67906 9.40357 3.80409 9.5286C3.92911 9.65362 3.99935 9.82319 3.99935 10V12C3.99935 12.1768 4.06959 12.3464 4.19461 12.4714C4.31964 12.5964 4.4892 12.6667 4.66602 12.6667H11.3327C11.5095 12.6667 11.6791 12.5964 11.8041 12.4714C11.9291 12.3464 11.9993 12.1768 11.9993 12V10C11.9993 9.82319 12.0696 9.65362 12.1946 9.5286C12.3196 9.40357 12.4892 9.33333 12.666 9.33333C12.8428 9.33333 13.0124 9.40357 13.1374 9.5286C13.2624 9.65362 13.3327 9.82319 13.3327 10V12C13.3327 12.5304 13.122 13.0391 12.7469 13.4142C12.3718 13.7893 11.8631 14 11.3327 14Z" fill="#6B7280"/>
</svg>
