<svg width="24" height="24" viewBox="0 0 24 24" fill="none" xmlns="http://www.w3.org/2000/svg">
<path d="M14.7178 20.2891C14.4938 20.5508 14.2247 20.7827 13.916 20.9707C13.3508 21.3148 12.6843 21.5 12 21.5C11.3157 21.5 10.6492 21.3148 10.084 20.9707C9.77526 20.7827 9.50625 20.5508 9.28223 20.2891H14.7178ZM12 2.5C12.1832 2.5 12.3517 2.5671 12.4697 2.67578C12.5863 2.78319 12.6426 2.92008 12.6426 3.05273V5.49316C12.6408 5.50124 12.6399 5.50955 12.6377 5.51758L12.4941 6.02734L13.0117 6.14062C14.2631 6.41502 15.3699 7.06893 16.1572 7.9873C16.9439 8.90507 17.3669 10.0346 17.3662 11.1914V13.0859C17.3662 14.5118 17.9833 15.4092 18.5518 16.0781C18.8507 16.43 19.0759 16.6556 19.2627 16.9121C19.4344 17.148 19.4999 17.3187 19.5 17.4805C19.5 17.64 19.4996 17.7805 19.4912 17.9082C19.4828 18.0368 19.467 18.1267 19.4473 18.1875C19.44 18.2098 19.4322 18.2232 19.4277 18.2314C19.4191 18.233 19.4053 18.2363 19.3848 18.2363H4.61523C4.59397 18.2363 4.5799 18.233 4.57129 18.2314C4.56686 18.2231 4.55986 18.2094 4.55273 18.1875C4.53297 18.1267 4.51722 18.0368 4.50879 17.9082C4.50044 17.7805 4.5 17.64 4.5 17.4805C4.5001 17.3187 4.56556 17.148 4.7373 16.9121C4.92412 16.6556 5.14926 16.43 5.44824 16.0781C6.01666 15.4092 6.63379 14.5118 6.63379 13.0859V11.1914L6.63867 10.9746C6.68742 9.89408 7.10531 8.8477 7.84277 7.9873C8.63012 7.06893 9.73687 6.41502 10.9883 6.14062L11.5059 6.02734L11.3623 5.51758C11.3601 5.50955 11.3592 5.50123 11.3574 5.49316V3.05273C11.3574 2.92008 11.4137 2.78319 11.5303 2.67578C11.6483 2.5671 11.8168 2.5 12 2.5Z" fill="#6B7280" stroke="#6B7280"/>
</svg>
