<svg width="24" height="24" viewBox="0 0 24 24" fill="none" xmlns="http://www.w3.org/2000/svg">
<path d="M3 19.2C3 19.6774 3.18964 20.1352 3.52721 20.4728C3.86477 20.8104 4.32261 21 4.8 21H19.2C19.6774 21 20.1352 20.8104 20.4728 20.4728C20.8104 20.1352 21 19.6774 21 19.2V10.2H3V19.2ZM15.6 12.45C15.6 12.3307 15.6474 12.2162 15.7318 12.1318C15.8162 12.0474 15.9307 12 16.05 12H16.95C17.0693 12 17.1838 12.0474 17.2682 12.1318C17.3526 12.2162 17.4 12.3307 17.4 12.45V13.35C17.4 13.4693 17.3526 13.5838 17.2682 13.6682C17.1838 13.7526 17.0693 13.8 16.95 13.8H16.05C15.9307 13.8 15.8162 13.7526 15.7318 13.6682C15.6474 13.5838 15.6 13.4693 15.6 13.35V12.45ZM15.6 16.05C15.6 15.9307 15.6474 15.8162 15.7318 15.7318C15.8162 15.6474 15.9307 15.6 16.05 15.6H16.95C17.0693 15.6 17.1838 15.6474 17.2682 15.7318C17.3526 15.8162 17.4 15.9307 17.4 16.05V16.95C17.4 17.0693 17.3526 17.1838 17.2682 17.2682C17.1838 17.3526 17.0693 17.4 16.95 17.4H16.05C15.9307 17.4 15.8162 17.3526 15.7318 17.2682C15.6474 17.1838 15.6 17.0693 15.6 16.95V16.05ZM11.1 12.45C11.1 12.3307 11.1474 12.2162 11.2318 12.1318C11.3162 12.0474 11.4307 12 11.55 12H12.45C12.5693 12 12.6838 12.0474 12.7682 12.1318C12.8526 12.2162 12.9 12.3307 12.9 12.45V13.35C12.9 13.4693 12.8526 13.5838 12.7682 13.6682C12.6838 13.7526 12.5693 13.8 12.45 13.8H11.55C11.4307 13.8 11.3162 13.7526 11.2318 13.6682C11.1474 13.5838 11.1 13.4693 11.1 13.35V12.45ZM11.1 16.05C11.1 15.9307 11.1474 15.8162 11.2318 15.7318C11.3162 15.6474 11.4307 15.6 11.55 15.6H12.45C12.5693 15.6 12.6838 15.6474 12.7682 15.7318C12.8526 15.8162 12.9 15.9307 12.9 16.05V16.95C12.9 17.0693 12.8526 17.1838 12.7682 17.2682C12.6838 17.3526 12.5693 17.4 12.45 17.4H11.55C11.4307 17.4 11.3162 17.3526 11.2318 17.2682C11.1474 17.1838 11.1 17.0693 11.1 16.95V16.05ZM6.6 12.45C6.6 12.3307 6.64741 12.2162 6.7318 12.1318C6.81619 12.0474 6.93065 12 7.05 12H7.95C8.06935 12 8.18381 12.0474 8.2682 12.1318C8.35259 12.2162 8.4 12.3307 8.4 12.45V13.35C8.4 13.4693 8.35259 13.5838 8.2682 13.6682C8.18381 13.7526 8.06935 13.8 7.95 13.8H7.05C6.93065 13.8 6.81619 13.7526 6.7318 13.6682C6.64741 13.5838 6.6 13.4693 6.6 13.35V12.45ZM6.6 16.05C6.6 15.9307 6.64741 15.8162 6.7318 15.7318C6.81619 15.6474 6.93065 15.6 7.05 15.6H7.95C8.06935 15.6 8.18381 15.6474 8.2682 15.7318C8.35259 15.8162 8.4 15.9307 8.4 16.05V16.95C8.4 17.0693 8.35259 17.1838 8.2682 17.2682C8.18381 17.3526 8.06935 17.4 7.95 17.4H7.05C6.93065 17.4 6.81619 17.3526 6.7318 17.2682C6.64741 17.1838 6.6 17.0693 6.6 16.95V16.05Z" fill="#6B7280"/>
<path d="M21 6.6C21 6.12261 20.8104 5.66477 20.4728 5.32721C20.1352 4.98964 19.6774 4.8 19.2 4.8H17.4V3.9C17.4 3.66131 17.3052 3.43239 17.1364 3.2636C16.9676 3.09482 16.7387 3 16.5 3C16.2613 3 16.0324 3.09482 15.8636 3.2636C15.6948 3.43239 15.6 3.66131 15.6 3.9V4.8H12.9V3.9C12.9 3.66131 12.8052 3.43239 12.6364 3.2636C12.4676 3.09482 12.2387 3 12 3C11.7613 3 11.5324 3.09482 11.3636 3.2636C11.1948 3.43239 11.1 3.66131 11.1 3.9V4.8H8.4V3.9C8.4 3.66131 8.30518 3.43239 8.1364 3.2636C7.96761 3.09482 7.73869 3 7.5 3C7.26131 3 7.03239 3.09482 6.8636 3.2636C6.69482 3.43239 6.6 3.66131 6.6 3.9V4.8H4.8C4.32261 4.8 3.86477 4.98964 3.52721 5.32721C3.18964 5.66477 3 6.12261 3 6.6V8.4H21V6.6Z" fill="#6B7280"/>
</svg>
