<svg width="30" height="30" viewBox="0 0 30 30" fill="none" xmlns="http://www.w3.org/2000/svg">
<path d="M13.0264 6.94727C13.2427 6.94728 13.4505 7.03354 13.6035 7.18652C13.7562 7.33938 13.8417 7.54663 13.8418 7.7627V16.1582H22.2373C22.4534 16.1583 22.6606 16.2438 22.8135 16.3965C22.9665 16.5495 23.0527 16.7573 23.0527 16.9736C23.0527 18.9566 22.4649 20.8952 21.3633 22.5439C20.2616 24.1927 18.6953 25.4774 16.8633 26.2363C15.0312 26.9952 13.0152 27.1945 11.0703 26.8076C9.1254 26.4208 7.33873 25.4657 5.93652 24.0635C4.53432 22.6613 3.57925 20.8746 3.19238 18.9297C2.80554 16.9848 3.00481 14.9688 3.76367 13.1367C4.52255 11.3047 5.8073 9.73838 7.45605 8.63672C9.10483 7.53511 11.0434 6.94727 13.0264 6.94727ZM16.9727 3C19.631 3.00299 22.1798 4.06067 24.0596 5.94043C25.8219 7.7028 26.8619 10.0528 26.9873 12.5303L27 13.0273C26.9997 13.2433 26.9135 13.4508 26.7607 13.6035C26.6079 13.7562 26.4006 13.8417 26.1846 13.8418H16.9736C16.7573 13.8418 16.5495 13.7565 16.3965 13.6035C16.2435 13.4505 16.1582 13.2427 16.1582 13.0264V3.81543C16.1583 3.59936 16.2438 3.39213 16.3965 3.23926C16.5492 3.08651 16.7567 3.00027 16.9727 3Z" fill="#FACA15" stroke="#FACA15"/>
</svg>
