<svg width="24" height="24" viewBox="0 0 24 24" fill="none" xmlns="http://www.w3.org/2000/svg">
<path d="M17.7895 12.5263H11.4737V6.21053C11.4737 5.93135 11.3628 5.66361 11.1654 5.4662C10.968 5.2688 10.7002 5.15789 10.4211 5.15789C8.75553 5.15789 7.1274 5.65178 5.74257 6.5771C4.35773 7.50241 3.27839 8.8176 2.64102 10.3563C2.00365 11.8951 1.83688 13.5883 2.16181 15.2218C2.48674 16.8553 3.28877 18.3558 4.46647 19.5335C5.64418 20.7112 7.14467 21.5133 8.77819 21.8382C10.4117 22.1631 12.1049 21.9964 13.6437 21.359C15.1824 20.7216 16.4976 19.6423 17.4229 18.2574C18.3482 16.8726 18.8421 15.2445 18.8421 13.5789C18.8421 13.2998 18.7312 13.032 18.5338 12.8346C18.3364 12.6372 18.0686 12.5263 17.7895 12.5263Z" fill="#3F83F8"/>
<path d="M13.5789 2C13.2998 2 13.032 2.1109 12.8346 2.30831C12.6372 2.50572 12.5263 2.77346 12.5263 3.05263V10.4211C12.5263 10.7002 12.6372 10.968 12.8346 11.1654C13.032 11.3628 13.2998 11.4737 13.5789 11.4737H20.9474C21.2265 11.4737 21.4943 11.3628 21.6917 11.1654C21.8891 10.968 22 10.7002 22 10.4211C21.9975 8.18842 21.1095 6.04795 19.5308 4.46924C17.9521 2.89053 15.8116 2.00251 13.5789 2Z" fill="#3F83F8"/>
</svg>
