<svg width="16" height="16" viewBox="0 0 16 16" fill="none" xmlns="http://www.w3.org/2000/svg">
<path d="M8.01212 10.6668C7.7646 10.6668 7.52725 10.5733 7.35225 10.4069L3.61892 6.85863C3.52978 6.7768 3.45867 6.67892 3.40976 6.57069C3.36084 6.46246 3.3351 6.34606 3.33402 6.22828C3.33294 6.11049 3.35656 5.99368 3.40349 5.88466C3.45042 5.77565 3.51972 5.6766 3.60735 5.59331C3.69498 5.51002 3.79919 5.44416 3.9139 5.39955C4.0286 5.35495 4.1515 5.33251 4.27543 5.33353C4.39936 5.33455 4.52183 5.35902 4.6357 5.40551C4.74957 5.45201 4.85256 5.51958 4.93865 5.60431L8.01212 8.52544L11.0856 5.60431C11.2616 5.44272 11.4974 5.35331 11.7421 5.35533C11.9868 5.35735 12.2209 5.45064 12.394 5.61512C12.567 5.77959 12.6652 6.00207 12.6673 6.23466C12.6694 6.46725 12.5753 6.69133 12.4053 6.85863L8.67199 10.4069C8.49699 10.5733 8.25963 10.6668 8.01212 10.6668Z" fill="#1F2A37"/>
</svg>
