<svg width="14" height="14" viewBox="0 0 14 14" fill="none" xmlns="http://www.w3.org/2000/svg">
<path d="M3.73535 5.1665C3.78087 5.16688 3.82574 5.17635 3.86621 5.19287C3.90651 5.20937 3.94177 5.23274 3.96973 5.26025L3.97559 5.26611L6.66504 7.82178L7.00977 8.14893L7.35352 7.82178L10.0371 5.27197C10.0953 5.21862 10.1779 5.18539 10.2686 5.18604C10.3593 5.18678 10.442 5.22085 10.499 5.2749C10.5552 5.32825 10.5824 5.39539 10.583 5.45947C10.5836 5.5211 10.5594 5.58531 10.5088 5.63818L7.24219 8.74365C7.18465 8.79827 7.10143 8.83336 7.00977 8.8335C6.91785 8.83348 6.83401 8.79843 6.77637 8.74365L3.50977 5.63818L3.50391 5.63232L3.46484 5.58936C3.4541 5.5745 3.44465 5.55926 3.4375 5.54346C3.42307 5.51153 3.41632 5.47782 3.41602 5.44482C3.41572 5.41184 3.42274 5.37821 3.43652 5.34619C3.45035 5.31423 3.47151 5.28342 3.5 5.25635C3.52864 5.22917 3.56372 5.2058 3.60449 5.18994C3.64528 5.17408 3.68994 5.16617 3.73535 5.1665Z" fill="#6B7280" stroke="#6B7280"/>
</svg>
