<svg width="24" height="24" viewBox="0 0 24 24" fill="none" xmlns="http://www.w3.org/2000/svg">
<path d="M20 10H19.243L18.536 8.293L19.071 7.757C19.2585 7.56947 19.3638 7.31516 19.3638 7.05C19.3638 6.78484 19.2585 6.53053 19.071 6.343L17.657 4.929C17.4695 4.74153 17.2152 4.63621 16.95 4.63621C16.6848 4.63621 16.4305 4.74153 16.243 4.929L15.707 5.464L14 4.757V4C14 3.73478 13.8946 3.48043 13.7071 3.29289C13.5196 3.10536 13.2652 3 13 3H11C10.7348 3 10.4804 3.10536 10.2929 3.29289C10.1054 3.48043 10 3.73478 10 4V4.757L8.293 5.464L7.757 4.929C7.56947 4.74153 7.31516 4.63621 7.05 4.63621C6.78484 4.63621 6.53053 4.74153 6.343 4.929L4.929 6.343C4.74153 6.53053 4.63621 6.78484 4.63621 7.05C4.63621 7.31516 4.74153 7.56947 4.929 7.757L5.465 8.293L4.757 10H4C3.73478 10 3.48043 10.1054 3.29289 10.2929C3.10536 10.4804 3 10.7348 3 11V13C3 13.2652 3.10536 13.5196 3.29289 13.7071C3.48043 13.8946 3.73478 14 4 14H4.757C5.098 14.823 5.124 14.884 5.464 15.707L4.929 16.243C4.74153 16.4305 4.63621 16.6848 4.63621 16.95C4.63621 17.2152 4.74153 17.4695 4.929 17.657L6.343 19.071C6.53053 19.2585 6.78484 19.3638 7.05 19.3638C7.31516 19.3638 7.56947 19.2585 7.757 19.071L8.293 18.536L10 19.243V20C10 20.2652 10.1054 20.5196 10.2929 20.7071C10.4804 20.8946 10.7348 21 11 21H13C13.2652 21 13.5196 20.8946 13.7071 20.7071C13.8946 20.5196 14 20.2652 14 20V19.243L15.707 18.535L16.243 19.071C16.4305 19.2585 16.6848 19.3638 16.95 19.3638C17.2152 19.3638 17.4695 19.2585 17.657 19.071L19.071 17.657C19.2585 17.4695 19.3638 17.2152 19.3638 16.95C19.3638 16.6848 19.2585 16.4305 19.071 16.243L18.536 15.707L19.243 14H20C20.2652 14 20.5196 13.8946 20.7071 13.7071C20.8946 13.5196 21 13.2652 21 13V11C21 10.7348 20.8946 10.4804 20.7071 10.2929C20.5196 10.1054 20.2652 10 20 10ZM12 16C11.2089 16 10.4355 15.7654 9.77772 15.3259C9.11992 14.8864 8.60723 14.2616 8.30448 13.5307C8.00173 12.7998 7.92252 11.9956 8.07686 11.2196C8.2312 10.4437 8.61216 9.73098 9.17157 9.17157C9.73098 8.61216 10.4437 8.2312 11.2196 8.07686C11.9956 7.92252 12.7998 8.00173 13.5307 8.30448C14.2616 8.60723 14.8864 9.11992 15.3259 9.77772C15.7654 10.4355 16 11.2089 16 12C16 13.0609 15.5786 14.0783 14.8284 14.8284C14.0783 15.5786 13.0609 16 12 16Z" fill="#6B7280"/>
</svg>
