<svg width="24" height="24" viewBox="0 0 24 24" fill="none" xmlns="http://www.w3.org/2000/svg">
<path d="M16 17C16.5523 17 17 16.5523 17 16C17 15.4477 16.5523 15 16 15C15.4477 15 15 15.4477 15 16C15 16.5523 15.4477 17 16 17Z" fill="#6B7280"/>
<path d="M20 7H12C10.897 7 10 7.897 10 9V20H7C6.448 20 6 20.448 6 21C6 21.552 6.448 22 7 22H21C21.552 22 22 21.552 22 21V9C22 7.897 21.103 7 20 7ZM16 10C16.552 10 17 10.448 17 11C17 11.552 16.552 12 16 12C15.448 12 15 11.552 15 11C15 10.448 15.448 10 16 10ZM16 19C14.346 19 13 17.654 13 16C13 14.346 14.346 13 16 13C17.654 13 19 14.346 19 16C19 17.654 17.654 19 16 19Z" fill="#6B7280"/>
<path d="M18 2H4C2.897 2 2 2.897 2 4V15C2 16.103 2.897 17 4 17H8C8.552 17 9 16.552 9 16V12C9 11.448 8.552 11 8 11H4V4H18V5C18 5.552 18.448 6 19 6C19.552 6 20 5.552 20 5V4C20 2.897 19.103 2 18 2Z" fill="#6B7280"/>
</svg>
