<svg width="24" height="24" viewBox="0 0 24 24" fill="none" xmlns="http://www.w3.org/2000/svg">
<path d="M7 2H3C2.447 2 2 2.447 2 3V7C2 7.553 2.447 8 3 8H7C7.553 8 8 7.553 8 7V3C8 2.447 7.553 2 7 2Z" fill="#6B7280"/>
<path d="M21 2H17C16.447 2 16 2.447 16 3V7C16 7.553 16.447 8 17 8H21C21.553 8 22 7.553 22 7V3C22 2.447 21.553 2 21 2Z" fill="#6B7280"/>
<path d="M7 16H3C2.447 16 2 16.447 2 17V21C2 21.553 2.447 22 3 22H7C7.553 22 8 21.553 8 21V17C8 16.447 7.553 16 7 16Z" fill="#6B7280"/>
<path d="M21 16H17C16.447 16 16 16.447 16 17V21C16 21.553 16.447 22 17 22H21C21.553 22 22 21.553 22 21V17C22 16.447 21.553 16 21 16Z" fill="#6B7280"/>
<path d="M14 4H10C9.447 4 9 4.447 9 5C9 5.553 9.447 6 10 6H14C14.553 6 15 5.553 15 5C15 4.447 14.553 4 14 4Z" fill="#6B7280"/>
<path d="M14 18H10C9.447 18 9 18.447 9 19C9 19.553 9.447 20 10 20H14C14.553 20 15 19.553 15 19C15 18.447 14.553 18 14 18Z" fill="#6B7280"/>
<path d="M6 14V10C6 9.447 5.553 9 5 9C4.447 9 4 9.447 4 10V14C4 14.553 4.447 15 5 15C5.553 15 6 14.553 6 14Z" fill="#6B7280"/>
<path d="M20 14V10C20 9.447 19.553 9 19 9C18.447 9 18 9.447 18 10V14C18 14.553 18.447 15 19 15C19.553 15 20 14.553 20 14Z" fill="#6B7280"/>
</svg>
