<svg width="155" height="170" viewBox="0 0 155 170" fill="none" xmlns="http://www.w3.org/2000/svg">
<path d="M4.2595 123.774C0.0359783 126.286 -1.38784 131.779 1.55019 135.718C8.644 145.228 17.6674 153.178 28.0649 159.027C41.055 166.334 55.735 170.104 70.6385 169.962C85.542 169.819 100.147 165.768 112.995 158.214C125.843 150.66 136.484 139.867 143.855 126.913C151.225 113.959 155.068 99.2975 154.999 84.3935C154.929 69.4895 150.951 54.8645 143.46 41.9796C135.969 29.0947 125.228 18.4009 112.31 10.9666C101.854 4.94835 90.2664 1.2366 78.3251 0.038759C73.6581 -0.429389 69.8454 3.41578 69.8442 8.10618C69.8429 12.7966 73.6588 16.5454 78.3127 17.1293C87.2773 18.2541 95.9584 21.1532 103.838 25.688C114.18 31.6398 122.778 40.2011 128.775 50.5166C134.773 60.832 137.958 72.5405 138.013 84.4724C138.069 96.4043 134.993 108.142 129.092 118.513C123.191 128.883 114.672 137.524 104.386 143.572C94.1002 149.62 82.4075 152.863 70.476 152.977C58.5445 153.091 46.7919 150.072 36.3922 144.223C28.3503 139.699 21.3351 133.605 15.7477 126.332C13.0263 122.789 8.09907 121.491 4.2595 123.774Z" fill="#9061F9"/>
</svg>
