<svg width="209" height="212" viewBox="0 0 209 212" fill="none" xmlns="http://www.w3.org/2000/svg">
<path d="M6.47337 125.884C1.94286 126.834 -0.992638 131.289 0.311055 135.731C5.14392 152.196 13.9096 167.287 25.9028 179.676C39.8443 194.077 57.5775 204.237 77.0517 208.982C96.5258 213.727 116.945 212.863 135.949 206.489C154.952 200.115 171.763 188.492 184.437 172.964C197.112 157.436 205.132 138.637 207.57 118.742C210.008 98.8472 206.765 78.6684 198.215 60.5394C189.665 42.4105 176.159 27.072 159.257 16.2978C144.717 7.02929 128.175 1.46426 111.076 0.02752C106.463 -0.36005 102.686 3.40841 102.664 8.03726C102.641 12.6661 106.384 16.3962 110.99 16.852C124.921 18.2304 138.376 22.8661 150.246 30.4329C164.48 39.506 175.854 52.4229 183.054 67.6896C190.254 82.9563 192.985 99.9492 190.932 116.703C188.878 133.457 182.125 149.288 171.451 162.364C160.778 175.44 146.621 185.228 130.618 190.596C114.615 195.964 97.4194 196.692 81.0199 192.696C64.6204 188.7 49.6869 180.144 37.9465 168.016C28.1552 157.902 20.9184 145.649 16.7773 132.276C15.408 127.854 11.0039 124.935 6.47337 125.884Z" fill="#1A56DB"/>
</svg>
