<svg width="92" height="126" viewBox="0 0 92 126" fill="none" xmlns="http://www.w3.org/2000/svg">
<path d="M1.36971 108.643C-1.43762 113.443 0.160097 119.694 5.34333 121.706C11.2389 123.995 17.4619 125.395 23.8082 125.843C33.5139 126.528 43.2469 124.968 52.2522 121.284C61.2575 117.599 69.2931 111.89 75.7355 104.599C82.178 97.3074 86.854 88.6299 89.4011 79.2394C91.9481 69.8489 92.2976 59.9978 90.4224 50.4504C88.5472 40.903 84.4978 31.9159 78.5882 24.1864C72.6787 16.4568 65.0679 10.1925 56.3462 5.87946C50.6209 3.04813 44.5178 1.10763 38.2477 0.107243C32.7979 -0.762275 28.2948 3.78998 28.2922 9.30875C28.2903 13.4754 31.689 16.7914 35.799 17.4765C40.2227 18.2139 44.5279 19.5992 48.5724 21.5994C54.8793 24.7183 60.383 29.2482 64.6564 34.8378C68.9298 40.4273 71.8581 46.9262 73.2141 53.8303C74.5701 60.7343 74.3174 67.858 72.4756 74.6486C70.6337 81.4393 67.2523 87.7143 62.5935 92.987C57.9348 98.2597 52.1239 102.388 45.6119 105.052C39.0998 107.717 32.0615 108.845 25.0429 108.349C20.517 108.03 16.0778 107.041 11.8669 105.426C8.01512 103.949 3.45256 105.082 1.36971 108.643Z" fill="#F5BB16"/>
</svg>
