<svg width="170" height="170" viewBox="0 0 170 170" fill="none" xmlns="http://www.w3.org/2000/svg">
<path d="M8.11062 84.8072C3.41935 84.8072 -0.427563 88.6197 0.0394143 93.2877C1.42526 107.141 6.19107 120.49 13.9737 132.137C23.3347 146.147 36.6399 157.066 52.2066 163.514C67.7734 169.962 84.9027 171.649 101.428 168.362C117.954 165.075 133.134 156.961 145.048 145.047C156.962 133.133 165.076 117.953 168.363 101.427C171.65 84.9017 169.963 67.7725 163.515 52.2057C157.067 36.6389 146.148 23.3338 132.138 13.9728C120.491 6.19009 107.142 1.42429 93.2887 0.0384373C88.6207 -0.428541 84.8082 3.41837 84.8082 8.10964C84.8082 12.8009 88.6258 16.5494 93.2807 17.1322C103.768 18.4451 113.848 22.1834 122.7 28.0983C133.916 35.5925 142.658 46.2444 147.82 58.7069C152.982 71.1694 154.333 84.8828 151.701 98.113C149.069 111.343 142.574 123.496 133.035 133.034C123.497 142.573 111.344 149.068 98.1139 151.7C84.8838 154.332 71.1704 152.981 58.7079 147.819C46.2454 142.657 35.5935 133.915 28.0992 122.699C22.1844 113.847 18.4461 103.767 17.1332 93.2797C16.5504 88.6248 12.8019 84.8072 8.11062 84.8072Z" fill="#EBEBEB"/>
</svg>
