<svg width="14" height="12" viewBox="0 0 14 12" fill="none" xmlns="http://www.w3.org/2000/svg">
<rect width="14" height="12" rx="2" fill="white"/>
<mask id="mask0_0_726" style="mask-type:luminance" maskUnits="userSpaceOnUse" x="0" y="0" width="14" height="12">
<rect width="14" height="12" rx="2" fill="white"/>
</mask>
<g mask="url(#mask0_0_726)">
<path d="M14 12H0V11.2002H14V12ZM14 10.4004H0V9.59961H14V10.4004ZM14 8.7998H0V8H14V8.7998ZM14 7.2002H0V6.40039H14V7.2002ZM14 5.59961H0V4.7998H14V5.59961ZM14 4H0V3.2002H14V4ZM14 2.40039H0V1.59961H14V2.40039ZM14 0.799805H0V0H14V0.799805Z" fill="#D02F44"/>
<rect width="6" height="5.6" fill="#46467F"/>
<g filter="url(#filter0_d_0_726)">
<path d="M0.999023 4C1.18301 4 1.33283 4.17868 1.33301 4.39941C1.33301 4.62033 1.18312 4.7998 0.999023 4.7998C0.815078 4.79959 0.666016 4.6202 0.666016 4.39941C0.666191 4.17881 0.815187 4.00021 0.999023 4ZM2.33301 4C2.51684 4.00021 2.66584 4.17881 2.66602 4.39941C2.66602 4.6202 2.51695 4.79959 2.33301 4.7998C2.14891 4.7998 1.99902 4.62033 1.99902 4.39941C1.9992 4.17868 2.14902 4 2.33301 4ZM3.66602 4C3.85 4 3.99885 4.17868 3.99902 4.39941C3.99902 4.62033 3.85011 4.7998 3.66602 4.7998C3.48192 4.7998 3.33301 4.62033 3.33301 4.39941C3.33318 4.17868 3.48203 4 3.66602 4ZM4.99902 4C5.18301 4 5.33283 4.17868 5.33301 4.39941C5.33301 4.62033 5.18312 4.7998 4.99902 4.7998C4.81508 4.79959 4.66602 4.6202 4.66602 4.39941C4.66619 4.17881 4.81519 4.00021 4.99902 4ZM1.66602 3.2002C1.85006 3.2002 1.99894 3.37879 1.99902 3.59961C1.99902 3.82052 1.85011 4 1.66602 4C1.48192 4 1.33301 3.82052 1.33301 3.59961C1.3331 3.37879 1.48198 3.2002 1.66602 3.2002ZM2.99902 3.2002C3.18306 3.2002 3.33292 3.37879 3.33301 3.59961C3.33301 3.82052 3.18312 4 2.99902 4C2.81508 3.99979 2.66602 3.82039 2.66602 3.59961C2.6661 3.37892 2.81513 3.20041 2.99902 3.2002ZM4.33301 3.2002C4.5169 3.20041 4.66593 3.37892 4.66602 3.59961C4.66602 3.82039 4.51695 3.99979 4.33301 4C4.14891 4 3.99902 3.82052 3.99902 3.59961C3.99911 3.37879 4.14897 3.2002 4.33301 3.2002ZM0.999023 2.39941C1.18312 2.39941 1.33301 2.57889 1.33301 2.7998C1.33301 3.02072 1.18312 3.2002 0.999023 3.2002C0.815078 3.19998 0.666016 3.02059 0.666016 2.7998C0.666016 2.57902 0.815078 2.39962 0.999023 2.39941ZM2.33301 2.39941C2.51695 2.39962 2.66602 2.57902 2.66602 2.7998C2.66602 3.02059 2.51695 3.19998 2.33301 3.2002C2.14891 3.2002 1.99902 3.02072 1.99902 2.7998C1.99902 2.57889 2.14891 2.39941 2.33301 2.39941ZM3.66602 2.39941C3.85011 2.39941 3.99902 2.57889 3.99902 2.7998C3.99902 3.02072 3.85011 3.2002 3.66602 3.2002C3.48192 3.2002 3.33301 3.02072 3.33301 2.7998C3.33301 2.57889 3.48192 2.39941 3.66602 2.39941ZM4.99902 2.39941C5.18312 2.39941 5.33301 2.57889 5.33301 2.7998C5.33301 3.02072 5.18312 3.2002 4.99902 3.2002C4.81508 3.19998 4.66602 3.02059 4.66602 2.7998C4.66602 2.57902 4.81508 2.39962 4.99902 2.39941ZM1.66602 1.59961C1.85011 1.59961 1.99902 1.77909 1.99902 2C1.99894 2.22082 1.85006 2.39941 1.66602 2.39941C1.48198 2.39941 1.3331 2.22082 1.33301 2C1.33301 1.77909 1.48192 1.59961 1.66602 1.59961ZM2.99902 1.59961C3.18312 1.59961 3.33301 1.77909 3.33301 2C3.33292 2.22082 3.18306 2.39941 2.99902 2.39941C2.81513 2.3992 2.6661 2.22069 2.66602 2C2.66602 1.77922 2.81508 1.59982 2.99902 1.59961ZM4.33301 1.59961C4.51695 1.59982 4.66602 1.77922 4.66602 2C4.66593 2.22069 4.5169 2.3992 4.33301 2.39941C4.14897 2.39941 3.99911 2.22082 3.99902 2C3.99902 1.77909 4.14891 1.59961 4.33301 1.59961ZM0.999023 0.799805C1.18312 0.799805 1.33301 0.979281 1.33301 1.2002C1.33283 1.42093 1.18301 1.59961 0.999023 1.59961C0.815187 1.5994 0.666191 1.4208 0.666016 1.2002C0.666016 0.979412 0.815078 0.800016 0.999023 0.799805ZM2.33301 0.799805C2.51695 0.800016 2.66602 0.979412 2.66602 1.2002C2.66584 1.4208 2.51684 1.5994 2.33301 1.59961C2.14902 1.59961 1.9992 1.42093 1.99902 1.2002C1.99902 0.979281 2.14891 0.799805 2.33301 0.799805ZM3.66602 0.799805C3.85011 0.799805 3.99902 0.979281 3.99902 1.2002C3.99885 1.42093 3.85 1.59961 3.66602 1.59961C3.48203 1.59961 3.33318 1.42093 3.33301 1.2002C3.33301 0.979281 3.48192 0.799805 3.66602 0.799805ZM4.99902 0.799805C5.18312 0.799805 5.33301 0.979281 5.33301 1.2002C5.33283 1.42093 5.18301 1.59961 4.99902 1.59961C4.81519 1.5994 4.66619 1.4208 4.66602 1.2002C4.66602 0.979412 4.81508 0.800016 4.99902 0.799805Z" fill="url(#paint0_linear_0_726)"/>
</g>
</g>
<defs>
<filter id="filter0_d_0_726" x="0.666016" y="0.799805" width="4.66602" height="5" filterUnits="userSpaceOnUse" color-interpolation-filters="sRGB">
<feFlood flood-opacity="0" result="BackgroundImageFix"/>
<feColorMatrix in="SourceAlpha" type="matrix" values="0 0 0 0 0 0 0 0 0 0 0 0 0 0 0 0 0 0 127 0" result="hardAlpha"/>
<feOffset dy="1"/>
<feColorMatrix type="matrix" values="0 0 0 0 0 0 0 0 0 0 0 0 0 0 0 0 0 0 0.06 0"/>
<feBlend mode="normal" in2="BackgroundImageFix" result="effect1_dropShadow_0_726"/>
<feBlend mode="normal" in="SourceGraphic" in2="effect1_dropShadow_0_726" result="shape"/>
</filter>
<linearGradient id="paint0_linear_0_726" x1="0.666016" y1="0.799805" x2="0.666016" y2="4.7998" gradientUnits="userSpaceOnUse">
<stop stop-color="white"/>
<stop offset="1" stop-color="#F0F0F0"/>
</linearGradient>
</defs>
</svg>
