<svg width="33" height="33" viewBox="0 0 33 33" fill="none" xmlns="http://www.w3.org/2000/svg">
<g clip-path="url(#clip0_0_875)">
<rect width="32.999" height="32.999" rx="16.2153" fill="#F5BB16"/>
<path d="M17.1389 15.2385L25.0518 34.105H17.1389V15.2385Z" fill="#231E1E" fill-opacity="0.12"/>
<path d="M25.9846 11.3339L33.8975 30.2003H25.9846V11.3339Z" fill="#231E1E" fill-opacity="0.12"/>
<path d="M10.0043 19.2137L17.9172 38.0802H10.0043V19.2137Z" fill="#231E1E" fill-opacity="0.12"/>
<path d="M24.3293 2.32173L27.6107 11.1514L26.0188 10.4104V32.9974H22.5848V10.4104L20.8136 11.1514L24.3293 2.32173Z" fill="url(#paint0_linear_0_875)"/>
<path d="M16.4312 13.7525H19.5929L17.6234 17.3806H15.2564L13.2696 13.7525H16.4312Z" fill="url(#paint1_linear_0_875)"/>
<path d="M16.4439 32.998L14.1391 32.998L15.2712 17.6457L17.6548 17.6457L18.7487 32.998L16.4439 32.998Z" fill="url(#paint2_linear_0_875)"/>
<path d="M8.4634 18.8565H10.1539V19.9217H6.7729V18.8565H8.4634Z" fill="#413F40"/>
<path d="M8.46289 32.4107L6.7724 32.4107L6.7724 19.9219L10.1534 19.9219L10.1534 32.4107L8.46289 32.4107Z" fill="#5E5E5E"/>
<line x1="6.93984" y1="22.032" x2="7.73372" y2="22.032" stroke="#F6BB16" stroke-width="0.11197"/>
<line x1="6.93984" y1="23.6849" x2="7.73372" y2="23.6849" stroke="#F6BB16" stroke-width="0.11197"/>
<line x1="6.93984" y1="25.3379" x2="7.73372" y2="25.3379" stroke="#F6BB16" stroke-width="0.11197"/>
<line x1="6.93984" y1="26.9909" x2="7.73372" y2="26.9909" stroke="#F6BB16" stroke-width="0.11197"/>
<line x1="6.93984" y1="28.6439" x2="7.73372" y2="28.6439" stroke="#F6BB16" stroke-width="0.11197"/>
<line x1="7.00145" y1="31.3462" x2="8.0838" y2="31.3462" stroke="#F6BB16" stroke-width="0.11197"/>
</g>
<defs>
<linearGradient id="paint0_linear_0_875" x1="20.6263" y1="17.5419" x2="27.3803" y2="17.5419" gradientUnits="userSpaceOnUse">
<stop offset="0.546186" stop-color="#5E5E5E"/>
<stop offset="0.557292" stop-color="#424041"/>
</linearGradient>
<linearGradient id="paint1_linear_0_875" x1="13.0954" y1="15.5526" x2="19.3786" y2="15.5526" gradientUnits="userSpaceOnUse">
<stop offset="0.518996" stop-color="#5D5D5D"/>
<stop offset="0.526142" stop-color="#413F40"/>
</linearGradient>
<linearGradient id="paint2_linear_0_875" x1="18.8756" y1="25.3807" x2="14.2954" y2="25.3807" gradientUnits="userSpaceOnUse">
<stop offset="0.51953" stop-color="#413F40"/>
<stop offset="0.538176" stop-color="#5D5D5D"/>
</linearGradient>
<clipPath id="clip0_0_875">
<rect width="32.999" height="32.999" rx="16.2153" fill="white"/>
</clipPath>
</defs>
</svg>
