<svg width="24" height="24" viewBox="0 0 24 24" fill="none" xmlns="http://www.w3.org/2000/svg">
<path d="M11.8313 12.5859L9.70312 13.447L11.8313 14.4796V12.5859Z" fill="#6B7280"/>
<path d="M6.58203 14.7088L11.8297 17.5289V15.3209L8.75557 13.8291L6.58203 14.7088Z" fill="#6B7280"/>
<path d="M12.4001 19H3.60009C2.7165 19 2 20.0744 2 21.4V22H14V21.4C14 20.0744 13.2837 19 12.4001 19Z" fill="#6B7280"/>
<path d="M4.26562 16.8809V19.5258H8.83806L4.26562 16.8809Z" fill="#6B7280"/>
<path d="M14 7.6V7H2V7.6C2 8.92531 2.7165 10 3.60009 10H12.4001C13.2837 10 14 8.92531 14 7.6Z" fill="#6B7280"/>
<path d="M11.827 9.87891L4.26562 12.9378V14.8281L8.61756 13.0671L8.62208 13.0653C8.63228 13.0611 8.64249 13.0577 8.65236 13.0542L11.8282 11.7689L11.827 9.87891Z" fill="#6B7280"/>
<path d="M4.26562 12.1211L11.1968 9.31738H4.26562V12.1211Z" fill="#6B7280"/>
<path d="M18.0685 9.31758H21.093C22.6583 9.31591 23.9269 8.04745 23.9286 6.48204V4.02459C23.9286 3.00156 22.5641 2.30811 21.6222 2.16339C21.558 1.85356 21.3995 1.57116 21.1687 1.35467C20.9299 1.12882 20.6144 1.00201 20.2858 1C20.2522 1 20.2186 1 20.1848 1.00418L2.02905 2.45215C2.0088 2.46503 1.99759 2.48846 2.00044 2.51238C1.99759 2.5363 2.00897 2.55972 2.02955 2.57244L20.1856 4.02041C20.5478 4.04584 20.904 3.91902 21.1687 3.67042C21.3818 3.46782 21.5322 3.20834 21.6018 2.92259C22.3168 3.05376 23.1724 3.57088 23.1724 4.02459V6.48204C23.1711 7.63004 22.2409 8.56022 21.093 8.56156H18.0685C16.5024 8.56156 15.2329 9.83102 15.2329 11.3969C15.2329 12.963 16.5024 14.2325 18.0685 14.2325H20.904C22.1567 14.2325 23.1724 15.2481 23.1724 16.501C23.1724 17.7538 22.1567 18.7694 20.904 18.7694H11.8302V18.3868L5.67113 15.0768L4.26884 15.6443V16.0068L10.3516 19.5256H20.904C22.5743 19.5256 23.9286 18.1714 23.9286 16.501C23.9286 14.8306 22.5743 13.4765 20.904 13.4765H18.0685C16.92 13.4765 15.9889 12.5454 15.9889 11.3969C15.9889 10.2486 16.92 9.31758 18.0685 9.31758ZM20.5259 2.89047H17.8794C17.6706 2.89047 17.5013 2.72117 17.5013 2.51238C17.5013 2.30359 17.6706 2.13428 17.8794 2.13428H20.5259C20.7347 2.13428 20.904 2.30359 20.904 2.51238C20.904 2.72117 20.7347 2.89047 20.5259 2.89047Z" fill="#6B7280"/>
</svg>
