<svg width="12" height="12" viewBox="0 0 12 12" fill="none" xmlns="http://www.w3.org/2000/svg">
<path d="M6 1C5.0111 1 4.0444 1.29324 3.22215 1.84265C2.3999 2.39206 1.75904 3.17295 1.3806 4.08658C1.00217 5.00021 0.90315 6.00555 1.09608 6.97545C1.289 7.94535 1.76521 8.83627 2.46447 9.53553C3.16373 10.2348 4.05465 10.711 5.02455 10.9039C5.99445 11.0969 6.99979 10.9978 7.91342 10.6194C8.82705 10.241 9.60794 9.60009 10.1573 8.77785C10.7068 7.9556 11 6.9889 11 6C10.9985 4.67436 10.4713 3.40344 9.53393 2.46607C8.59656 1.52871 7.32564 1.00146 6 1ZM5.75 3C5.89834 3 6.04334 3.04399 6.16668 3.1264C6.29002 3.20881 6.38615 3.32594 6.44291 3.46299C6.49968 3.60003 6.51453 3.75083 6.48559 3.89632C6.45665 4.0418 6.38522 4.17544 6.28033 4.28033C6.17544 4.38522 6.04181 4.45665 5.89632 4.48559C5.75083 4.51453 5.60003 4.49967 5.46299 4.44291C5.32594 4.38614 5.20881 4.29001 5.1264 4.16668C5.04399 4.04334 5 3.89834 5 3.75C5 3.55109 5.07902 3.36032 5.21967 3.21967C5.36032 3.07902 5.55109 3 5.75 3ZM7 8.5H5C4.86739 8.5 4.74022 8.44732 4.64645 8.35355C4.55268 8.25978 4.5 8.13261 4.5 8C4.5 7.86739 4.55268 7.74021 4.64645 7.64644C4.74022 7.55268 4.86739 7.5 5 7.5H5.5V6H5C4.86739 6 4.74022 5.94732 4.64645 5.85355C4.55268 5.75978 4.5 5.63261 4.5 5.5C4.5 5.36739 4.55268 5.24021 4.64645 5.14645C4.74022 5.05268 4.86739 5 5 5H6C6.13261 5 6.25979 5.05268 6.35355 5.14645C6.44732 5.24021 6.5 5.36739 6.5 5.5V7.5H7C7.13261 7.5 7.25979 7.55268 7.35355 7.64644C7.44732 7.74021 7.5 7.86739 7.5 8C7.5 8.13261 7.44732 8.25978 7.35355 8.35355C7.25979 8.44732 7.13261 8.5 7 8.5Z" fill="#9CA3AF"/>
</svg>
