<svg width="24" height="24" viewBox="0 0 24 24" fill="none" xmlns="http://www.w3.org/2000/svg">
<path d="M12.9404 2.50586H12.9424C13.0206 2.50852 13.0987 2.51288 13.1768 2.51758C12.6376 3.17588 12.1887 3.90981 11.8467 4.7002C11.3696 5.80272 11.1064 6.99191 11.0732 8.19922V8.65723C11.0984 9.72064 11.2994 10.7734 11.6689 11.7686C12.0912 12.9056 12.7256 13.946 13.5361 14.8301C14.3468 15.7142 15.3184 16.425 16.3955 16.9199C17.4726 17.4148 18.6339 17.6838 19.8125 17.7119H20.0342C19.2427 18.7946 18.239 19.6929 17.0859 20.3428C15.6555 21.149 14.0465 21.5465 12.4229 21.4961H12.4189C11.2196 21.4693 10.0361 21.1952 8.9375 20.6904C7.83903 20.1857 6.8462 19.459 6.0166 18.5518C5.18694 17.6444 4.53704 16.5741 4.10547 15.4023C3.67394 14.2306 3.46927 12.9808 3.50391 11.7256C3.53857 10.4705 3.81142 9.23549 4.30664 8.0918C4.80195 6.94807 5.5098 5.91849 6.3877 5.0625C7.26572 4.20648 8.29756 3.53984 9.42188 3.10156C10.546 2.66345 11.7418 2.4611 12.9404 2.50586Z" fill="#6B7280" stroke="#6B7280"/>
</svg>
