<svg width="24" height="24" viewBox="0 0 24 24" fill="none" xmlns="http://www.w3.org/2000/svg">
<path d="M20.0528 7H11.5276C11.2764 7 11.0355 6.89464 10.8578 6.70711C10.6802 6.51957 10.5804 6.26522 10.5804 6C10.5804 5.73478 10.6802 5.48043 10.8578 5.29289C11.0355 5.10536 11.2764 5 11.5276 5H20.0528C20.304 5 20.5449 5.10536 20.7226 5.29289C20.9002 5.48043 21 5.73478 21 6C21 6.26522 20.9002 6.51957 20.7226 6.70711C20.5449 6.89464 20.304 7 20.0528 7Z" fill="#6B7280"/>
<path d="M20.0528 13H11.5276C11.2764 13 11.0355 12.8946 10.8578 12.7071C10.6802 12.5196 10.5804 12.2652 10.5804 12C10.5804 11.7348 10.6802 11.4804 10.8578 11.2929C11.0355 11.1054 11.2764 11 11.5276 11H20.0528C20.304 11 20.5449 11.1054 20.7226 11.2929C20.9002 11.4804 21 11.7348 21 12C21 12.2652 20.9002 12.5196 20.7226 12.7071C20.5449 12.8946 20.304 13 20.0528 13Z" fill="#6B7280"/>
<path d="M20.0528 19H11.5276C11.2764 19 11.0355 18.8946 10.8578 18.7071C10.6802 18.5196 10.5804 18.2652 10.5804 18C10.5804 17.7348 10.6802 17.4804 10.8578 17.2929C11.0355 17.1054 11.2764 17 11.5276 17H20.0528C20.304 17 20.5449 17.1054 20.7226 17.2929C20.9002 17.4804 21 17.7348 21 18C21 18.2652 20.9002 18.5196 20.7226 18.7071C20.5449 18.8946 20.304 19 20.0528 19Z" fill="#6B7280"/>
<path d="M8.68593 21H3.94975C3.75094 21 3.55717 20.934 3.39589 20.8112C3.23461 20.6885 3.11399 20.5153 3.05112 20.3162C2.98826 20.1171 2.98632 19.9022 3.0456 19.7018C3.10488 19.5015 3.22236 19.3259 3.38141 19.2L6.50729 16.715C6.59779 16.6221 6.66961 16.511 6.71844 16.3881C6.76727 16.2652 6.7921 16.1332 6.79146 16C6.79146 15.7348 6.69166 15.4804 6.51402 15.2929C6.33638 15.1054 6.09545 15 5.84422 15C5.593 15 5.35207 15.1054 5.17443 15.2929C4.99678 15.4804 4.89699 15.7348 4.89699 16C4.89699 16.2652 4.79719 16.5196 4.61955 16.7071C4.44191 16.8946 4.20097 17 3.94975 17C3.69853 17 3.4576 16.8946 3.27995 16.7071C3.10231 16.5196 3.00251 16.2652 3.00251 16C3.00265 15.4987 3.12179 15.0053 3.34906 14.5651C3.57633 14.1249 3.90448 13.7519 4.30351 13.4801C4.70255 13.2082 5.15975 13.0463 5.63333 13.0091C6.10691 12.9719 6.58178 13.0606 7.01453 13.2671C7.44728 13.4735 7.82412 13.7912 8.1106 14.191C8.39709 14.5909 8.58409 15.0602 8.65451 15.556C8.72494 16.0518 8.67654 16.5583 8.51374 17.0293C8.35095 17.5002 8.07894 17.9206 7.72259 18.252C7.68752 18.2842 7.6505 18.3139 7.61177 18.341L6.78199 19H8.68593C8.93715 19 9.17809 19.1054 9.35573 19.2929C9.53337 19.4804 9.63317 19.7348 9.63317 20C9.63317 20.2652 9.53337 20.5196 9.35573 20.7071C9.17809 20.8946 8.93715 21 8.68593 21Z" fill="#6B7280"/>
<path d="M7.7387 9H6.79146V4C6.79146 3.989 6.78578 3.981 6.78578 3.97C6.77984 3.90211 6.76714 3.83508 6.74789 3.77C6.73784 3.70512 6.72165 3.64147 6.69958 3.58C6.69958 3.57 6.69958 3.559 6.692 3.55C6.66624 3.50987 6.63775 3.47177 6.60675 3.436C6.57183 3.37501 6.53018 3.31862 6.48266 3.268C6.43629 3.22714 6.38615 3.19129 6.333 3.161C6.28406 3.12441 6.23169 3.09325 6.1767 3.068C6.11298 3.04655 6.04723 3.03246 5.98063 3.026C5.93583 3.0138 5.89023 3.00511 5.84422 3C5.8338 3 5.82528 3.006 5.81486 3.006C5.75348 3.01263 5.69287 3.0257 5.63394 3.045C5.57079 3.05535 5.50887 3.07278 5.44923 3.097C5.43975 3.097 5.42933 3.097 5.42081 3.105L3.52634 4.105C3.30086 4.22355 3.12924 4.43181 3.04921 4.68395C2.96918 4.93609 2.98731 5.21147 3.09961 5.4495C3.2119 5.68753 3.40917 5.86872 3.64801 5.95321C3.88685 6.03769 4.14769 6.01855 4.37317 5.9L4.89699 5.618V9H3.94975C3.69853 9 3.4576 9.10536 3.27995 9.29289C3.10231 9.48043 3.00251 9.73478 3.00251 10C3.00251 10.2652 3.10231 10.5196 3.27995 10.7071C3.4576 10.8946 3.69853 11 3.94975 11H7.7387C7.98992 11 8.23085 10.8946 8.40849 10.7071C8.58613 10.5196 8.68593 10.2652 8.68593 10C8.68593 9.73478 8.58613 9.48043 8.40849 9.29289C8.23085 9.10536 7.98992 9 7.7387 9Z" fill="#6B7280"/>
</svg>
