<svg width="24" height="24" viewBox="0 0 24 24" fill="none" xmlns="http://www.w3.org/2000/svg">
<path d="M12 12.5263C13.6569 12.5263 15 11.1125 15 9.36846C15 7.62441 13.6569 6.21058 12 6.21058C10.3431 6.21058 9 7.62441 9 9.36846C9 11.1125 10.3431 12.5263 12 12.5263Z" fill="#6B7280"/>
<path d="M11 15.6842H13C14.0609 15.6842 15.0783 16.1278 15.8284 16.9175C16.5786 17.7071 17 18.778 17 19.8947V22H7V19.8947C7 18.778 7.42143 17.7071 8.17157 16.9175C8.92172 16.1278 9.93913 15.6842 11 15.6842Z" fill="#6B7280"/>
<path d="M15 9.36846C14.9993 8.62425 14.7483 7.90431 14.2917 7.33616C13.835 6.76801 13.2021 6.38829 12.505 6.26426" fill="#6B7280"/>
<path d="M16.5 2.00006C15.7815 2.00238 15.077 2.20901 14.4609 2.59812C13.8448 2.98723 13.34 3.54436 13 4.21058C14.1287 4.45471 15.1428 5.10106 15.8715 6.04065C16.6002 6.98023 16.9987 8.15557 17 9.36846C16.9983 9.70795 16.9648 10.0464 16.9 10.379C17.9225 10.2766 18.868 9.76293 19.5398 8.94503C20.2115 8.12713 20.5576 7.068 20.5061 5.9882C20.4545 4.90839 20.0093 3.89113 19.263 3.14823C18.5168 2.40534 17.5271 1.99407 16.5 2.00006Z" fill="#6B7280"/>
<path d="M9.366 13.8232C8.51249 13.2605 7.83802 12.4424 7.429 11.4737H7C5.6744 11.4754 4.40356 12.0304 3.46622 13.0171C2.52888 14.0038 2.00159 15.3415 2 16.7369V18.8421C2 19.1213 2.10536 19.389 2.29289 19.5864C2.48043 19.7838 2.73478 19.8947 3 19.8947H5C5.00228 18.5208 5.42963 17.1851 6.21738 16.0896C7.00513 14.9941 8.11042 14.1985 9.366 13.8232Z" fill="#6B7280"/>
<path d="M17 11.4737H16.571C16.162 12.4424 15.4875 13.2605 14.634 13.8232C15.8896 14.1985 16.9949 14.9941 17.7826 16.0896C18.5704 17.1851 18.9977 18.5208 19 19.8947H21C21.2652 19.8947 21.5196 19.7838 21.7071 19.5864C21.8946 19.389 22 19.1213 22 18.8421V16.7369C21.9984 15.3415 21.4711 14.0038 20.5338 13.0171C19.5964 12.0304 18.3256 11.4754 17 11.4737Z" fill="#6B7280"/>
<path d="M7 9.36847C7.00127 8.15557 7.39984 6.98024 8.12849 6.04065C8.85715 5.10107 9.87133 4.45472 11 4.21059C10.6735 3.57248 10.1956 3.03421 9.61289 2.64819C9.03015 2.26217 8.36238 2.04154 7.67459 2.00779C6.98681 1.97403 6.30243 2.12829 5.68809 2.45555C5.07374 2.78282 4.55036 3.27194 4.16888 3.8753C3.7874 4.47866 3.56083 5.17571 3.51121 5.8986C3.46159 6.62148 3.59062 7.34558 3.88574 8.0004C4.18086 8.65522 4.63201 9.21845 5.19528 9.63528C5.75855 10.0521 6.41475 10.3083 7.1 10.379C7.03516 10.0464 7.00166 9.70795 7 9.36847Z" fill="#6B7280"/>
</svg>
