<svg width="30" height="30" viewBox="0 0 30 30" fill="none" xmlns="http://www.w3.org/2000/svg">
<path d="M14.999 4.25C17.8493 4.25313 20.5822 5.3869 22.5977 7.40234C24.4872 9.29185 25.6019 11.8116 25.7363 14.4678L25.75 15.001C25.7498 17.1268 25.1195 19.2051 23.9385 20.9727C22.7573 22.7403 21.0784 24.118 19.1143 24.9316C17.15 25.7453 14.9876 25.9578 12.9023 25.543C10.8172 25.1281 8.90173 24.1049 7.39844 22.6016C5.89515 21.0983 4.87189 19.1828 4.45703 17.0977C4.04224 15.0124 4.25472 12.85 5.06836 10.8857C5.882 8.92164 7.25968 7.24267 9.02734 6.06152C10.7949 4.88048 12.8732 4.25019 14.999 4.25ZM18.375 10.0137C17.9491 10.01 17.5388 10.1739 17.2324 10.4697L17.2266 10.4756L15 12.7012L12.7744 10.4756L12.7676 10.4697C12.4612 10.1739 12.0509 10.01 11.625 10.0137C11.1989 10.0174 10.7915 10.1889 10.4902 10.4902C10.1889 10.7915 10.0174 11.1989 10.0137 11.625C10.01 12.0509 10.1739 12.4612 10.4697 12.7676L10.4766 12.7734L12.7021 14.999L10.4766 17.2256H10.4756L10.4697 17.2324C10.1739 17.5388 10.01 17.9491 10.0137 18.375C10.0174 18.8011 10.1889 19.2085 10.4902 19.5098C10.7915 19.8111 11.1989 19.9826 11.625 19.9863C12.0509 19.99 12.4612 19.8261 12.7676 19.5303L12.7744 19.5234L15 17.2969L17.2197 19.5166V19.5176C17.3695 19.6727 17.5489 19.7967 17.7471 19.8818C17.9453 19.967 18.1592 20.0118 18.375 20.0137C18.5906 20.0155 18.8043 19.9742 19.0039 19.8926C19.2036 19.8109 19.3855 19.6907 19.5381 19.5381C19.6907 19.3855 19.8109 19.2036 19.8926 19.0039C19.9742 18.8043 20.0155 18.5906 20.0137 18.375C20.0118 18.1592 19.967 17.9453 19.8818 17.7471C19.7977 17.5514 19.6759 17.3743 19.5234 17.2256H19.5244L17.2979 14.999L19.5234 12.7734L19.5244 12.7744L19.5303 12.7676C19.8261 12.4612 19.9899 12.0509 19.9863 11.625C19.9826 11.1989 19.8111 10.7915 19.5098 10.4902C19.2085 10.1889 18.8011 10.0174 18.375 10.0137Z" fill="#F98080" stroke="#F98080"/>
</svg>
