<svg width="1219" height="398" viewBox="0 0 1219 398" fill="none" xmlns="http://www.w3.org/2000/svg">
<line x1="2" y1="397.5" x2="1217" y2="397.5" stroke="#E5E7EB" stroke-dasharray="5 5"/>
<line x1="2" y1="298.25" x2="1217" y2="298.25" stroke="#E5E7EB" stroke-dasharray="5 5"/>
<line x1="2" y1="199" x2="1217" y2="199" stroke="#E5E7EB" stroke-dasharray="5 5"/>
<line x1="2" y1="99.75" x2="1217" y2="99.75" stroke="#E5E7EB" stroke-dasharray="5 5"/>
<line x1="2" y1="0.5" x2="1217" y2="0.5" stroke="#E5E7EB" stroke-dasharray="5 5"/>
<path d="M2 204.526C71.9616 194.524 67.2975 253.94 159.414 262.608C251.53 271.277 277.182 210.598 319.159 193.261C361.136 175.925 379.793 96.9235 449.754 102.258C519.716 107.592 554.697 161.042 612.998 167.71C671.299 174.378 682.96 218.6 737.763 251.273C792.566 283.946 842.705 287.947 911.501 281.279C980.297 274.611 998.953 207.193 1031.6 204.526C1064.25 201.859 1093.4 234.008 1121.39 241.343C1149.37 248.678 1157.53 281.279 1217 281.279" stroke="#7E3AF2" stroke-width="4" stroke-linecap="round" stroke-linejoin="round"/>
<path d="M2 381C55.4405 369.064 99.3855 296.281 163.15 284.048C197.135 277.527 224.362 290.218 254.739 309.937C285.116 329.656 279.169 338.171 347.487 353.373C403.864 365.918 418.611 230.663 473.856 235.859C529.1 241.056 554.652 78.4375 612.978 92.0123C671.304 105.587 682.958 70.49 737.785 137.006C792.611 203.522 843.266 48.4776 912.091 34.9028C980.916 21.3281 998.841 165.408 1031.5 159.978C1064.17 154.548 1093.57 257.215 1121.57 272.147C1149.57 287.079 1157.51 232.835 1217 232.835" stroke="#1C64F2" stroke-width="4" stroke-linecap="round" stroke-linejoin="round"/>
</svg>
